<?xml version="1.0" encoding="UTF-8" standalone="no"?> <svg width="64" height="64" viewBox="0 0 64 64" fill="none" xmlns="http://www.w3.org/2000/svg">
<path d="M56.2098 50.7298L51.3498 45.8698C51.1811 45.7011 50.9577 45.5982 50.7198 45.5798L46.7198 45.2598L40.8198 39.3698C52.1698 27.4698 54.4098 11.3698 54.4998 10.6598C54.5179 10.5085 54.5012 10.3551 54.4509 10.2112C54.4007 10.0674 54.3182 9.93693 54.2098 9.82982C54.1027 9.72144 53.9722 9.63897 53.8284 9.58871C53.6845 9.53845 53.5311 9.52172 53.3798 9.53982C52.6798 9.62982 36.5698 11.8698 24.6698 23.2198L18.7798 17.3198L18.4598 13.3198C18.4414 13.0819 18.3385 12.8585 18.1698 12.6898L13.2698 7.78982C13.0825 7.60356 12.829 7.49902 12.5648 7.49902C12.3006 7.49902 12.0472 7.60356 11.8598 7.78982L7.78982 11.8598C7.60356 12.0472 7.49902 12.3006 7.49902 12.5648C7.49902 12.829 7.60356 13.0825 7.78982 13.2698L12.6498 18.1298C12.8185 18.2985 13.0419 18.4014 13.2798 18.4198L17.2798 18.7398L23.1798 24.6298C11.8298 36.5298 9.58982 52.6298 9.49982 53.3398C9.48122 53.4816 9.49325 53.6258 9.53511 53.7625C9.57697 53.8993 9.64767 54.0255 9.74246 54.1326C9.83724 54.2397 9.95389 54.3252 10.0845 54.3834C10.2152 54.4416 10.3568 54.471 10.4998 54.4698H10.6298C11.3298 54.3798 27.4398 52.1398 39.3398 40.7898L45.2298 46.6898L45.5498 50.6898C45.5682 50.9277 45.6711 51.1511 45.8398 51.3198L50.6998 56.1798C50.8872 56.3661 51.1406 56.4706 51.4048 56.4706C51.669 56.4706 51.9225 56.3661 52.1098 56.1798L56.1798 52.1098C56.3646 51.9236 56.4687 51.6722 56.4698 51.4098C56.4717 51.1585 56.3788 50.9158 56.2098 50.7298V50.7298ZM52.2098 11.7298C51.4198 15.8398 48.3398 28.4298 39.3298 37.9098L36.9998 35.6198C40.2498 31.9398 40.9998 27.4898 38.7598 25.2098C36.5198 22.9298 32.0598 23.7198 28.3798 26.9998L26.0598 24.6698C35.5398 15.6298 48.1298 12.5498 52.2398 11.7598L52.2098 11.7298ZM34.2098 35.5798C31.4198 37.9798 28.0898 38.8098 26.6298 37.3498C25.1698 35.8898 25.9998 32.5898 28.3898 29.7998L34.2098 35.5798ZM29.8098 28.3598C31.3288 26.9258 33.2885 26.0482 35.3698 25.8698C36.1055 25.8354 36.8248 26.0944 37.3698 26.5898C38.8298 28.0498 37.9998 31.3798 35.5998 34.1698L29.8098 28.3598ZM13.8098 16.4198L9.90982 12.5598L12.5598 9.90982L16.4498 13.7998L16.6798 16.6798L13.8098 16.4198ZM11.8098 52.2098C12.5998 48.1098 15.6698 35.5198 24.6898 26.0298L26.9998 28.3798C23.7498 32.0598 22.9998 36.5098 25.2398 38.7898C25.6966 39.227 26.2363 39.5682 26.8272 39.7932C27.418 40.0182 28.048 40.1225 28.6798 40.0998C31.3032 39.9383 33.784 38.8503 35.6798 37.0298L38.0098 39.3598C28.4598 48.3698 15.8598 51.4498 11.7598 52.2398L11.8098 52.2098ZM51.4898 54.0598L47.5498 50.1998L47.3198 47.3198L50.1998 47.5498L54.0898 51.4398L51.4898 54.0598Z" fill="black"/>
</svg>
