<?xml version="1.0" encoding="UTF-8" standalone="no"?> <svg id="Layer_1" data-name="Layer 1" xmlns="http://www.w3.org/2000/svg" viewBox="0 0 64 64"><title>caravan</title><path d="M60,51H24a1,1,0,0,1-1-1,5,5,0,0,0-10,0,1,1,0,0,1-1,1H4a1,1,0,0,1-1-1V42A29,29,0,0,1,32,13H54a7,7,0,0,1,7,7V50A1,1,0,0,1,60,51ZM24.93,49H59V20a5,5,0,0,0-5-5H32A27,27,0,0,0,5,42v7h6.07a7,7,0,0,1,13.86,0Z"/><path d="M18,57a7,7,0,1,1,7-7A7,7,0,0,1,18,57Zm0-12a5,5,0,1,0,5,5A5,5,0,0,0,18,45Z"/><path d="M41,28H23a4,4,0,0,1,0-8H41a4,4,0,0,1,0,8ZM23,22a2,2,0,0,0,0,4H41a2,2,0,0,0,0-4Z"/><path d="M57,57H41a1,1,0,0,1-1-1V50a1,1,0,0,1,1-1H57a1,1,0,0,1,1,1v6A1,1,0,0,1,57,57ZM42,55H56V51H42Z"/><path d="M55,51H43a1,1,0,0,1-1-1V32a1,1,0,0,1,1-1H55a1,1,0,0,1,1,1V50A1,1,0,0,1,55,51ZM44,49H54V33H44Z"/></svg>