<?xml version="1.0" encoding="utf-8"?>
<!-- Generator: Adobe Illustrator 26.0.1, SVG Export Plug-In . SVG Version: 6.00 Build 0)  -->
<svg version="1.1" id="Layer_1" xmlns="http://www.w3.org/2000/svg" xmlns:xlink="http://www.w3.org/1999/xlink" x="0px" y="0px"
	 viewBox="0 0 500 500" style="enable-background:new 0 0 500 500;" xml:space="preserve">
<path d="M477.7,310.7c-4-3.7,11.4-0.4,19.2-3.8c6.3-2.8,1.1-10.1,1-12.3c-0.8-18.1,0.4-18.6-2.7-20.5c-3.7-2.3,0.9-4-0.5-6.1
	c-2.4-3.6,0.1-5.3,0.6-7.8c6.4-31.8,1.3-26.3-2.5-33.8c-0.7-1.3-3.1-2.6-1-3.9c1.3-0.8,1.4-2.2,3.9-20.4
	c2.3-16.9,0.8-10.4-12.6-20.6c4.8-2.1,6.2-1.9,6.1-6.8c-0.5-22.4,3.6-22.8-15.1-19.8c-62.4,10-127.1-2.4-174.9-7
	c-52.2-5-237.6-12.7-286,0c-6.4,1.7,1.6,10.1,2.1,13.7c1.4,10.1,1.4,14.6,1.8,20c0.6,8.1,15.9,7.8,21.2,10
	c-1.8,0.5-6.3,0.6-10.5,1.1c-33.3,4.1-27.6-8.3-26.7,10.3c0.6,12.3,5.3,12.5,2.3,17.8c-3.5,6.1,10.6,11.9,7,14.6
	c-6.6,4.9-8.4,3.9-8,8.3c0.1,1.4,1,6.2,0.9,6.9c-3,18.3-4.9,15.4,5,17.1c0.2,0,0.4,0.3,0.6,0.4c-1.6,2.3-9.2,4.1-8.9,6.9
	c4.4,44.2-5.5,28.7,7.6,38.2c1,0.7-2.2,3-3.8,5.2c-1.7,2.3,1.8,9.3,3.2,10.9c1.3,1.5,10.9,35.1,15.3,29c1.4-2,3.6-2.2,5.5-3.1
	c7.9-3.8,10.3-4,25.4-4.1c217.1-1.4,232.6-10,292.1-6.4c10.5,0.6,21.5,2.6,32.2,2.6s21.4-2.1,32.1-2.2c99.3-0.8,86.7,19.9,89.1-7.9
	c0.2-2.6,0.2-3.1-2.2-4.2c-1.1-0.5-1.7-0.9-0.3-1.6c2.7-1.4,2.7-5.6,3.3-12.4C499.9,314.2,499.8,316,477.7,310.7z"/>
</svg>
